<svg width="24" height="24" viewBox="0 0 24 24" fill="none" xmlns="http://www.w3.org/2000/svg">
<rect width="24" height="24" rx="12" fill="white"/>
<path d="M10.2857 6.42859H7.85714C6.51588 6.42859 5.42857 7.5159 5.42857 8.85716V16.1429C5.42857 17.4842 6.51588 18.5714 7.85714 18.5714H15.1429C16.4842 18.5714 17.5714 17.4842 17.5714 16.1429V13.7143H15.1429V16.1429H7.85714V8.85716H10.2857V6.42859Z" fill="black"/>
<path d="M14.1801 5.21423H18.1786C18.5138 5.21423 18.7857 5.48606 18.7857 5.82138V9.81989C18.7857 10.3608 18.1317 10.6317 17.7492 10.2492L16.5781 9.07805L13.716 11.9402C13.2418 12.4144 12.4729 12.4144 11.9987 11.9402C11.5245 11.466 11.5245 10.6971 11.9987 10.2229L14.8609 7.3608L13.7507 6.25069C13.3683 5.86821 13.6391 5.21423 14.1801 5.21423Z" fill="black"/>
</svg>
